<svg xmlns="http://www.w3.org/2000/svg" viewBox="0 0 56 56"><defs><style>.cls-1{fill:none;}.cls-2{fill:#fff1dd;}</style></defs><g id="Lag_2" data-name="Lag 2"><g id="Lag_1-2" data-name="Lag 1"><g id="Ellipse_12" data-name="Ellipse 12"><circle class="cls-1" cx="28" cy="28" r="28"/><path class="cls-2" d="M28,56A28,28,0,1,1,56,28,28,28,0,0,1,28,56ZM28,2A26,26,0,1,0,54,28,26,26,0,0,0,28,2Z"/></g><g id="Polygon_3" data-name="Polygon 3"><path class="cls-1" d="M34.26,13.89a1,1,0,0,1,1.42.08,1,1,0,0,1,.23.87L32.77,30.18a1,1,0,0,1-1.48.66l-8.57-4.95a1,1,0,0,1-.38-1.36,1,1,0,0,1,.21-.25Z"/><path class="cls-2" d="M33.35,17.37l-8.44,7.48,6.18,3.57,2.26-11m2.08-3.6a1,1,0,0,1,.48,1.07L32.77,30.18a1,1,0,0,1-1.48.66l-8.58-4.95a1,1,0,0,1-.16-1.61L34.26,13.89A1,1,0,0,1,35.43,13.77Z"/></g><g id="Polygon_4" data-name="Polygon 4"><path class="cls-1" d="M20.79,41.17a1,1,0,0,1-1.64-1l3.14-15.34a1,1,0,0,1,1.18-.78.94.94,0,0,1,.3.12l8.57,5a1,1,0,0,1,.37,1.36,1,1,0,0,1-.2.25Z"/><path class="cls-2" d="M21.71,37.68l8.43-7.48L24,26.64l-2.26,11m-2.08,3.61a1,1,0,0,1-.48-1.07l3.14-15.34a1,1,0,0,1,1.48-.67l8.57,5a1,1,0,0,1,.17,1.61L20.79,41.17A1,1,0,0,1,19.63,41.29Z"/></g></g></g></svg>