<svg xmlns="http://www.w3.org/2000/svg" viewBox="0 0 58.61 58.13"><defs><style>.cls-1{fill:#fff1dd;}</style></defs><g id="Lag_2" data-name="Lag 2"><g id="Lag_1-2" data-name="Lag 1"><g id="Group_42" data-name="Group 42"><g id="Path_18" data-name="Path 18"><path class="cls-1" d="M40.52,58.13a1.06,1.06,0,0,1-.4-.08L21.37,49.8l-20,8.25A1,1,0,0,1,.44,58,1,1,0,0,1,0,57.13v-47a1,1,0,0,1,.59-.91L21,.09a1,1,0,0,1,.85,0l18.67,9L57.14.12A1,1,0,0,1,58.61,1V48.72a1,1,0,0,1-.56.89L41,58A1,1,0,0,1,40.52,58.13ZM21.38,47.72a1,1,0,0,1,.41.08L40.49,56l16.12-7.94V2.67L41,11.06a1,1,0,0,1-.9,0l-18.72-9L2,10.82V55.63l19-7.84A1,1,0,0,1,21.38,47.72Z"/></g><g id="Line_5" data-name="Line 5"><rect class="cls-1" x="19.92" y="0.71" width="2" height="48.53"/></g><g id="Line_6" data-name="Line 6"><rect class="cls-1" x="39.48" y="10.13" width="2" height="47.08"/></g></g></g></g></svg>