<svg xmlns="http://www.w3.org/2000/svg" viewBox="0 0 40.92 56.5"><defs><style>.cls-1{fill:#fff1dd;}.cls-2{fill:none;}</style></defs><g id="Lag_2" data-name="Lag 2"><g id="Lag_1-2" data-name="Lag 1"><g id="maps-and-flags"><g id="Group_7" data-name="Group 7"><g id="Group_6" data-name="Group 6"><g id="Path_16" data-name="Path 16"><path class="cls-1" d="M20.46,0A20.49,20.49,0,0,0,0,20.46C0,34.46,18.31,55,19.09,55.89a1.84,1.84,0,0,0,2.6.14l.14-.14c.78-.87,19.09-21.42,19.09-35.43A20.48,20.48,0,0,0,20.46,0Zm0,55C14.3,47.63,2,30.07,2,20.46,2,11.21,11.21,1.6,20.46,1.6s18.48,9.61,18.48,18.86C38.94,30.07,26.63,47.63,20.46,55Z"/></g></g></g><g id="Ellipse_13" data-name="Ellipse 13"><ellipse class="cls-2" cx="20" cy="19.5" rx="9" ry="9.5"/><path class="cls-1" d="M20,29a9.27,9.27,0,0,1-9-9.5A9.27,9.27,0,0,1,20,10a9.27,9.27,0,0,1,9,9.5A9.27,9.27,0,0,1,20,29Zm0-17a7.27,7.27,0,0,0-7,7.5A7.27,7.27,0,0,0,20,27a7.27,7.27,0,0,0,7-7.5A7.27,7.27,0,0,0,20,12Z"/></g></g></g></g></svg>