<svg id="Layer_1" data-name="Layer 1" xmlns="http://www.w3.org/2000/svg" viewBox="0 0 379.27 407.44"><path d="M-76.13,89.37" transform="translate(0.06 0.07)" style="fill:none;stroke:#fff;stroke-linecap:round;stroke-linejoin:bevel;stroke-width:2px"/><path d="M150.49,401.48" transform="translate(0.06 0.07)" style="fill:none;stroke:#000;stroke-linecap:round;stroke-linejoin:bevel;stroke-width:4.627669334411621px"/><path d="M162.31,409.17" transform="translate(0.06 0.07)" style="fill:none;stroke:#000;stroke-linecap:round;stroke-linejoin:bevel;stroke-width:4.627669334411621px"/><path d="M377.8,87.78" transform="translate(0.06 0.07)" style="fill:none;stroke:#fff;stroke-linecap:round;stroke-linejoin:bevel;stroke-width:4.627669334411621px"/><path d="M142.63,404.37V375.63c-1.38-3-4.31-7.6-6.87-8H125.7L107.88,365l-.87-.45c-1-1-9.48-10.24-9.43-16.67-.38-2.19-5.39-29.67-13.59-38.24l-15.55-.72h-.15c-.44-.06-10.9-1.82-18.56-21.46-.53-1.33-1.06-2.81-1.61-4.52a64,64,0,0,0-5.79-12.58c-3.8-6.37-8.21-11.28-13.13-14.6l-.66-1.39c0-.12.91-11.22-5.76-15.31l-7-.9-.54-.18c-.75-.42-4.49-2.64-4.57-5.57a4,4,0,0,1,2.11-3.48l4.14-4,.55-33.74L4.57,163.93c-1.31-1.46-3.85-4.71-2.84-7,.35-.8,1.23-1.75,3.4-1.75H6c1.76.15,4.5.23,8.13.23,5.39,0,11.31-.18,13.51-.25a101.27,101.27,0,0,0,7.52-21.24c.11-1.41,1.5-11.55,14.43-11.55h9.94s.53.07,1.1.11c-.18-1.11-.45-2.7-.7-4.19l.85-1.61s3.42-1.93,1.64-10.31l-11.06-2.25-.8-.44-8.63-9.19-.4-.95-.19-3.38L43,88.59l10.28,1.07a18.79,18.79,0,0,0,3-5.53l.37-6L57.18,77c3.06-2.39,6.59-5.78,7-7.11l.88-1c.09,0,9-3.79,18.37-15.14,6.74-8.17,10-10.5,12-11.9a7.8,7.8,0,0,0,1.79-1.5c.87-1.52,9.74-16.51,19.52-16.79,3.79-.5,10.33-1.72,12-2.91l.87-.28H182l1.43,1c0,.11,1.19,3.12,6.87,3.27,2,.06,4.35.08,6.88.08,4.32,0,7.83-.08,7.86-.08l.72.16c.38.2,9.07,4.65,12.87,8.1l21.22.19a163.38,163.38,0,0,0,27.94-16.76,89.82,89.82,0,0,0,9.11-7.88c4.66-4.66,11.06-7,19-7a46.46,46.46,0,0,1,7.06.57c1.6.24,3.17.55,4.69.91a75.76,75.76,0,0,1,13.64,4.68l1.17.56c4.83,2,44.66,18.28,49.82,26.87l.16.37c.19.7,1.53,7-7.94,18.44,2.55,3.25,10.31,13.93,12.11,25.64v.13l1.12,17.27-.94,1.49c-28.16,11.11-75.66,29.75-77.45,29.76h0c-1.94.46-16.13,6.11-25.58,9.87l-1.17.47c-10.2,4.07-11.59,4.61-12.08,4.68-.73.49-2.12,2.82-.83,8.54l6.81,15.47,19.22,25.38,16.39,18.92a29,29,0,0,1,6.61-1c2.64,0,4.42.72,5.27,2.13s.65,3.26-.56,5.53l-.28.38c-.35.34-3.34,3.5.1,7.51l.36,1c0,.07.27,8,12.24,15.43l.71,1.27a10,10,0,0,1-2.69,6.51,4.43,4.43,0,0,0-.64,3.52,3.43,3.43,0,0,0,.82,2,2.72,2.72,0,0,1,.49,0,2.33,2.33,0,0,1,2.29,2.15c.51,2.71-1.52,8.32-4.8,9.59-1,.84-.62,7.58.84,14.25,1.94,2.42,4.38,7.65,1.15,12.07l-.48.42c-.18.11-4.64,2.57-16.06,4.09a54.8,54.8,0,0,1-10,3.77c-.56,1.48-1.91,4.2-4.41,4.2-1.61,0-3.14-1.12-4.65-3.42-3.86-1-24.44-6.67-30.28-15.51a33.91,33.91,0,0,0-11.83-2.55c-5.56,0-9.43,2.19-11.5,6.52v.1s-2,3.8-1,14.39c.77,1.56,4,9,2.86,21.33.34,1.45,1.23,7.48-3.78,16.67-.1,1.68-.71,8.45-4.51,12.6l-.14.14c-.08.06-8,6.71-15.43,13.47-8.58,7.77-11.72,11.23-12.8,12.77l-1.65,11.84v.18c-.07.27-1.84,6.52-11.59,9l-.43.05-26.19-1.11c-1.47.84-6.41,3.17-16,3.17Z" transform="translate(0.06 0.07)" style="fill:#002f38"/><path d="M295.89,3a44.75,44.75,0,0,1,6.84.55c1.57.24,3.1.54,4.56.89A74.33,74.33,0,0,1,320.66,9c.76.35,1.17.56,1.17.56S365.92,27.42,371,35.86c0,0,1.69,6.2-8.44,18,0,0,10.5,12.38,12.57,25.89L376.23,97s-75.13,29.65-76.9,29.65h-.06c-1,0-15.93,6-27,10.36-6.54,2.61-11.73,4.68-12,4.68h0c-.5,0-4,1.93-2,10.51L265.17,168l4.33,5.72,15,19.8,17.07,19.7a30.16,30.16,0,0,1,7.12-1.15c3.16,0,5.71,1.1,3.39,5.46,0,0-4.5,4.32,0,9.57,0,0,0,8.64,13,16.7a8.44,8.44,0,0,1-2.25,5.45c-2.17,2.16-1.05,8.1,1.2,8.1h.53c2.08,0,.21,7.57-3,8.84s0,16.33,0,16.33,4.88,5.63,1.32,10.51c0,0-4.32,2.44-15.77,3.94a53.57,53.57,0,0,1-10.69,3.94s-1.07,4-3.25,4c-1,0-2.23-.82-3.7-3.23,0,0-24.58-6-30.21-15.39a35.32,35.32,0,0,0-13-2.93c-5,0-10.11,1.63-12.85,7.37,0,0-2.26,3.94-1.13,15.57,0,0,4.13,7.51,2.81,21,0,0,1.88,6-3.75,16.13,0,0-.19,7.7-4.13,12,0,0-7.89,6.65-15.47,13.51-5.89,5.33-11.6,10.78-13.24,13.33l-1.69,12.19s-1.5,5.63-10.5,7.89l-26.65-1.13s-4.47,3.14-15.57,3.14V375.31s-3.76-8.63-8.26-9.19h-10l-17.82-2.63s-9.2-9.75-9-15.76c0,0-5.25-30.77-14.45-39.59l-16.14-.77s-10-1.47-17.38-20.52c-.55-1.38-1.07-2.86-1.58-4.44a65.11,65.11,0,0,0-5.93-12.89c-3.13-5.25-7.58-11-13.58-15.07,0,0,1.12-12.38-6.76-16.89L16,236.62s-6.75-3.75-2.25-6.56l4.69-4.51L19,190.84,5.83,163.09s-5.89-6.41-.7-6.41h.7c2,.18,5.06.24,8.26.24,6.86,0,14.45-.28,14.45-.28a100.88,100.88,0,0,0,8.07-22.48s.37-10.32,12.94-10.32h9.76s1.33.16,2.22.16c.44,0,.78,0,.78-.16,0-.38-.94-5.82-.94-5.82s4.88-2.25,2.26-13l-12-2.44L43,93.39,42.81,90l10.88,1.13s1.69-.94,3.94-6.76L58,78.19s6.75-5.25,7.5-7.88c0,0,9.2-3.75,19-15.57s12-11.08,13.88-13.52c0,0,9-16,18.39-16.13,0,0,10.13-1.32,12.76-3.19h52.35s1.32,4.13,8.26,4.31c2.31.06,4.73.08,6.92.08,4.39,0,7.9-.08,7.9-.08s9.57,4.88,12.95,8.26l22.14.19a163.28,163.28,0,0,0,28.66-17.14,91.48,91.48,0,0,0,9.25-8c4.94-4.94,11.46-6.59,18-6.59m0-3c-8.38,0-15.14,2.51-20.09,7.47a90.3,90.3,0,0,1-8.95,7.74,161,161,0,0,1-27.49,16.52l-20.32-.17c-4-3.45-11.82-7.46-12.76-7.94l-1.44-.33s-3.52.08-7.82.08c-2.52,0-4.82,0-6.84-.08-4.53-.12-5.49-2.25-5.53-2.34V21l-2.85-2.09H129.49l-1.74.55c-1.19.85-6.75,2.05-11.26,2.64C106.14,22.47,97.33,37,95.85,39.53a7.34,7.34,0,0,1-1.41,1.14c-2,1.43-5.43,3.84-12.3,12.17-9.08,11-17.7,14.67-17.79,14.71l-1.74,2c-.38,1-3.4,4-6.46,6.33L55,78.07l-.35,5.71a22,22,0,0,1-2.15,4.28l-9.39-1L39.8,90.21,40,93.59l.81,1.88,8.63,9.19,1.59.89,10.08,2c1.13,6.33-1.13,7.82-1.15,7.82a.51.51,0,0,1,.16-.09l-1.7,3.24c.13.76.27,1.56.39,2.31H49.55c-12,0-15.62,8.27-15.93,12.91a100.32,100.32,0,0,1-7,20c-2.64.08-7.8.22-12.55.22-3.59,0-6.28-.08-8-.23h-1c-3.14,0-4.34,1.66-4.77,2.65-1.28,2.9,1.15,6.41,2.94,8.44L15.9,191.56l-.54,32.76-3.59,3.45a5.43,5.43,0,0,0-2.67,4.7c.09,3.65,4.11,6.16,5.34,6.84l1.07.35,6.68.86c5.59,3.74,4.81,13.63,4.8,13.74L28.3,257A43.66,43.66,0,0,1,41,271.13a63.24,63.24,0,0,1,5.64,12.22c.58,1.8,1.11,3.31,1.66,4.68,7.83,20.07,18.53,22.2,19.73,22.38h.3l14.93.69C89.75,318.53,94.6,339.8,96,348c.06,6.87,8.18,15.83,9.83,17.58l1.75.91,17.82,2.63h10.14c1.54.36,4,3.73,5.51,6.84v28.42l3,3c9.2,0,14.3-2.08,16.32-3.16l25.84,1.16.86-.09c10.59-2.66,12.59-9.73,12.67-10l.07-.36,1.58-11.55c1.08-1.43,4.08-4.73,12.38-12.24,7.44-6.76,15.31-13.35,15.44-13.42l.28-.27c3.89-4.25,4.71-10.92,4.87-13.19,4.86-9,4.25-15.15,3.83-17.19,1-11.94-2-19.49-3-21.63-.87-9.73.82-13.28.84-13.33v.08l.1-.2c1.83-3.81,5.15-5.66,10.15-5.66a31.85,31.85,0,0,1,10.85,2.28c6.23,8.74,25,14.19,30.33,15.59,1,1.48,2.93,3.61,5.58,3.61,3,0,4.69-2.56,5.52-4.44a59.37,59.37,0,0,0,9.29-3.57c11.34-1.54,15.88-4,16.37-4.24l.95-.84c3.63-5,1.19-10.74-1-13.61-1.13-5.27-1.6-10.76-1.1-12.48,3.67-1.92,5.73-7.83,5.14-11a3.87,3.87,0,0,0-3.44-3.35,4.36,4.36,0,0,1,.06-2.94,11.44,11.44,0,0,0,3.13-7.57l-1.42-2.55c-11.15-6.94-11.52-13.91-11.53-14.2h0l-.73-1.95c-2.52-2.95-.61-5.06-.2-5.46l.58-.75c1.47-2.77,1.64-5.13.51-7s-3.34-2.86-6.55-2.86a28.21,28.21,0,0,0-6.07.79L286.8,191.55l-14.94-19.72-4.12-5.44-6.68-15.18c-1-4.53-.14-6.26.19-6.73,1.12-.35,3.79-1.41,11.94-4.66l.15-.06,1-.4c8.49-3.38,22.52-9,25.11-9.72.94,0,3.46-.75,40.07-15,18.79-7.33,37.61-14.76,37.8-14.83l1.89-3-1.1-17.24v-.26c-1.7-11.07-8.55-21.22-11.68-25.39,9.12-11.48,7.69-18.1,7.48-18.85l-.32-.76C368.3,25.51,330.87,10,323.1,6.85l-1.16-.55A77.77,77.77,0,0,0,308,1.52c-1.54-.37-3.16-.69-4.79-.94A49.42,49.42,0,0,0,295.92,0Z" transform="translate(0.06 0.07)" style="fill:#fff"/><g style="opacity:0.1"><path d="M205.12,238.45c14,28.61,33.93,69.53,6.66,130.48-5.89,5.33-11.6,10.78-13.24,13.33l-1.69,12.19s-1.5,5.63-10.5,7.89l-26.65-1.13s-4.47,3.16-15.57,3.16V376.59c22.29-41.11,19.12-59.29,10.35-93.71-4-15.57-8.91-34.94-11.56-61.91-8.9-72.51,85.91-115.33,90.2-117.22-26.19,25.49-44.78,78.7-38.26,109.51C196.42,220.63,200.45,228.89,205.12,238.45Z" transform="translate(0.06 0.07)" style="fill:#fdefdb"/><path d="M302.73,3.55l-70.5,76.51s-54,14.09-104.6,72.43c-40.15,46.28-40,74.39-39.28,92.37l.46,20.37-5.29,2.62a239.91,239.91,0,0,0-32.35,19c-.55-1.38-1.07-2.86-1.58-4.44a65.11,65.11,0,0,0-5.93-12.89,262,262,0,0,1,25.79-15.36l2.26-1.09s-.14-4.81-.22-7.78c-.65-22.22-1.56-52.65,42.94-104,43.78-50.58,77.7-63.66,98-71.47l8.68-3c2.25-2.14,22.11-22.82,47.64-49.15a91.48,91.48,0,0,0,9.25-8C284.61,2.9,294.23,2.25,302.73,3.55Z" transform="translate(0.06 0.07)" style="fill:#fdefdb"/><path d="M320.66,9c-22.9,45.34-45.46,93-46.7,107.28L272.23,137c-6.64,2.65-11.9,4.75-12,4.68s-4.13,1.5-2.06,10.5L265.11,168l4.33,5.72c-1.48,23-3.65,46-12.31,66.32L246,218.56c5-15.35,5.53-32.25,6.89-59.23.76-15,1.54-30.54,3.79-45.54,4.49-29.87,34.05-82,50.56-109.35A74.05,74.05,0,0,1,320.66,9Z" transform="translate(0.06 0.07)" style="fill:#fdefdb"/></g></svg>