<svg id="Lag_1" data-name="Lag 1" xmlns="http://www.w3.org/2000/svg" viewBox="0 0 204.19 204.19"><defs><style>.cls-1{fill:#04485d;}.cls-2{fill:#fff;}</style></defs><circle class="cls-1" cx="102.09" cy="102.09" r="102.09"/><path class="cls-2" d="M178.12,98.72v24.42a7.64,7.64,0,0,1-2.21,4.1,7.74,7.74,0,0,1-3.09,1.79H34.74a8.7,8.7,0,0,1-8.67-8.69v-37a15.54,15.54,0,0,1,15.49-15.5H147.65l8.18,0a11.65,11.65,0,0,1,1.4.14,13.91,13.91,0,0,1,4.85,2,20.73,20.73,0,0,1,3.3,2.35,18.33,18.33,0,0,1,2.3,2.45A14.73,14.73,0,0,1,169,77q4.07,9,8.14,18a9.4,9.4,0,0,1,.81,2.24A12,12,0,0,1,178.12,98.72Z"/><rect class="cls-1" x="37.03" y="72.25" width="21.2" height="23.87" rx="1.44"/><rect class="cls-1" x="63.23" y="72.25" width="21.2" height="23.87" rx="1.44"/><rect class="cls-1" x="89.49" y="72.25" width="21.2" height="23.87" rx="1.44"/><rect class="cls-1" x="116.97" y="72.25" width="21.2" height="23.87" rx="1.44"/><path class="cls-1" d="M144.57,72.25H152a12.39,12.39,0,0,1,12.39,12.39V96.12a0,0,0,0,1,0,0H144.57a1.33,1.33,0,0,1-1.33-1.33V73.58a1.33,1.33,0,0,1,1.33-1.33Z"/><circle class="cls-2" cx="148.56" cy="127.96" r="11.68"/><path class="cls-1" d="M148.57,142.72A14.77,14.77,0,1,1,163.33,128,14.78,14.78,0,0,1,148.57,142.72Zm0-23.35a8.59,8.59,0,1,0,8.58,8.59A8.6,8.6,0,0,0,148.57,119.37Z"/><circle class="cls-2" cx="58.23" cy="127.96" r="11.68"/><path class="cls-1" d="M58.23,142.72A14.77,14.77,0,1,1,73,128,14.78,14.78,0,0,1,58.23,142.72Zm0-23.35A8.59,8.59,0,1,0,66.81,128,8.59,8.59,0,0,0,58.23,119.37Z"/></svg>