<svg id="Lag_1" data-name="Lag 1" xmlns="http://www.w3.org/2000/svg" viewBox="0 0 204.19 204.19"><defs><style>.cls-1{fill:#04485d;}</style></defs><path class="cls-1" d="M81.7,54c8.4,9.9,9.16,23.07,1.7,29.41S63.05,86.89,54.65,77l4.45-3.78a2,2,0,0,0,3.08-2.61l4.45-3.78a2,2,0,0,0,3.08-2.61l4.46-3.78a2,2,0,0,0,3.08-2.62Z"/><path class="cls-1" d="M170.69,180.25,165.13,185a2.92,2.92,0,0,1-4.11-.34q-28.78-35.17-57.56-70.37L80.28,85l5.57-4.72,25,27.74L171,176.14A2.92,2.92,0,0,1,170.69,180.25Z"/><rect class="cls-1" x="47.41" y="27.27" width="5.82" height="49.68" rx="2.87" transform="translate(-21.76 44.93) rotate(-40.31)"/><rect class="cls-1" x="39.87" y="33.66" width="5.82" height="49.68" rx="2.87" transform="translate(-27.69 41.57) rotate(-40.31)"/><rect class="cls-1" x="62.48" y="14.48" width="5.82" height="49.68" rx="2.87" transform="translate(-9.91 51.65) rotate(-40.31)"/><rect class="cls-1" x="54.95" y="20.87" width="5.82" height="49.68" rx="2.87" transform="matrix(0.76, -0.65, 0.65, 0.76, -15.84, 48.29)"/><path class="cls-1" d="M67.07,185.87l-7.94-5.34c-1.74-1.17-2.44-3.21-1.54-4.54l52.47-74.26,22.2-30L140.2,77l-19.6,31.8Q96.23,147.2,71.86,185.57C71,186.9,68.81,187,67.07,185.87Z"/><path class="cls-1" d="M129.49,94.59l49-76.85c-.09-.66-.54-3.42-2.74-4.66a6,6,0,0,0-4.28-.34,25.85,25.85,0,0,0-10.17,4.64c-8.57,6.78-11.82,11-11.82,11-2.87,3.68-7.81,10.1-14.3,18.72-5.5,7.31-10.71,14.84-16.3,22.09-4.12,5.36-7.37,9.36-6.68,13.58a28.78,28.78,0,0,0,2.52,7.21,26.87,26.87,0,0,0,1.84,3c.75.25,1.55.49,2.38.7A33.28,33.28,0,0,0,129.49,94.59Z"/></svg>