<svg id="Lag_1" data-name="Lag 1" xmlns="http://www.w3.org/2000/svg" viewBox="0 0 204.19 204.19"><defs><style>.cls-1{fill:#04485d;}</style></defs><path id="Path_45" data-name="Path 45" class="cls-1" d="M95.21.13c28.44,0,61.42,15.62,61.42,34.67S126.68,70.85,98.3,70.85a73.51,73.51,0,0,1-30.07-4.92A33,33,0,0,1,48.1,34.82,32.53,32.53,0,0,1,68.23,5.2,54.54,54.54,0,0,1,95.21.13Z"/><path id="Path_46" data-name="Path 46" class="cls-1" d="M90.64,82.05a96.9,96.9,0,0,0,43.08-6.94,117.23,117.23,0,0,0,19.8-11.75c3.35-2.87,5.85-6.85,6.63-5.37a36.67,36.67,0,0,1,20.39,30.23c0,24.53-22.5,44.18-65.94,44.18S23.72,114.34,23.72,89.81a27.71,27.71,0,0,1,9.55-18.36A47.41,47.41,0,0,1,45.62,63.6,66.54,66.54,0,0,0,56,72.54,60.7,60.7,0,0,0,90.64,82.05Z"/><path id="Path_47" data-name="Path 47" class="cls-1" d="M91.75,142.44a150.25,150.25,0,0,0,54.68-3.14,70.7,70.7,0,0,0,20-7.88,60.38,60.38,0,0,0,7.7-4.95s-.32-.2-.26-.24c19.17,7.6,30.37,21.47,30.37,28.81,0,27.5-46.32,44-100.18,47.91A170.8,170.8,0,0,1,25.81,193,41.59,41.59,0,0,1,.09,151.88a39.47,39.47,0,0,1,14.29-23.17,72.72,72.72,0,0,1,14.85-9.17,87.7,87.7,0,0,0,20.06,11.88A196.51,196.51,0,0,0,91.75,142.44Z"/></svg>