<svg id="Lag_1" data-name="Lag 1" xmlns="http://www.w3.org/2000/svg" viewBox="0 0 204.19 204.19"><defs><style>.cls-1{font-size:150px;fill:#fff;font-family:Helvetica;letter-spacing:-0.02em;}.cls-2{fill:#04485d;}</style></defs><text class="cls-1" transform="translate(52.85 -71.85)">P</text><rect class="cls-2" x="9.17" y="40.97" width="184.42" height="38.8" rx="4.57"/><path class="cls-2" d="M204.19,134.48q-90,1.78-182.64.09-10.63-.21-21.23-.45V127l17-23.47a5.71,5.71,0,0,1,4.51-3.36h161a4,4,0,0,1,4,4l17.33,23.22Z"/><path class="cls-2" d="M17.81,104.21.32,134.12"/><rect class="cls-2" x="30.41" y="33.52" width="9.21" height="121.04" rx="2.5"/><rect class="cls-2" x="164.72" y="33.52" width="9.21" height="121.04" rx="2.5"/><rect class="cls-2" x="180.25" y="130.46" width="9.21" height="36.3" rx="2.5"/><rect class="cls-2" x="13.2" y="130.46" width="9.21" height="36.3" rx="2.5"/></svg>