<svg id="Lag_1" data-name="Lag 1" xmlns="http://www.w3.org/2000/svg" viewBox="0 0 204.19 204.19"><defs><style>.cls-1{fill:#04485d;}.cls-2{fill:none;stroke:#04485d;stroke-miterlimit:10;stroke-width:10px;}</style></defs><path class="cls-1" d="M160.1,36.9q-5.35,36.68-10.72,73.34l-3,20.68,4.83-3.67L53.53,128.3l-27.4.29L31,132.26,16.1,72.66l-4.22-17L7.06,62,68.62,54.7l61.55-7.33,34.75-4.14c2.59-.31,5.13-2.08,5-5-.11-2.44-2.22-5.33-5-5l-61.55,7.33L41.81,47.89,7.06,52a5.24,5.24,0,0,0-3.93,2,5,5,0,0,0-.89,4.36Q9.67,88.17,17.08,118l4.23,17a5.07,5.07,0,0,0,4.82,3.67l97.64-1.05,27.41-.29c2,0,4.5-1.52,4.82-3.67q5.35-36.68,10.72-73.35l3-20.67a5.41,5.41,0,0,0-.5-3.85,5.1,5.1,0,0,0-3-2.3C163.88,32.87,160.51,34.13,160.1,36.9Z"/><path class="cls-1" d="M162.41,154.65l-50.69-.29-50.45-.28-28.73-.16,4.83,3.67L31,132.26a5,5,0,1,0-9.64,2.66q3.2,12.66,6.41,25.33a5.09,5.09,0,0,0,4.82,3.67l50.7.29,50.45.28,28.72.16a5,5,0,0,0,0-10Z"/><path class="cls-1" d="M194.54-.63,181,3.74,174.4,5.85l-3.28,1.06c-2.32.75-4.23,1.6-5,4.19-1.25,4.52-2.1,9.19-3.15,13.76l-3.21,14c-.58,2.55.78,5.53,3.5,6.15,2.54.58,5.52-.76,6.15-3.49q3.19-14,6.41-28L172.38,17,197.2,9c2.49-.8,4.35-3.5,3.49-6.15-.8-2.48-3.48-4.35-6.15-3.49Z"/><path class="cls-2" d="M40.09,56.11l10.43,74.51"/><path class="cls-2" d="M72.43,52.84l3.24,75.41"/><path class="cls-2" d="M104.41,46.94q-1.72,41.41-3.46,82.82"/><path class="cls-2" d="M136.55,45.44q-5.36,41.51-10.7,83h0"/><ellipse class="cls-1" cx="56.97" cy="190.72" rx="11.67" ry="11.78"/><ellipse class="cls-1" cx="137.52" cy="190.72" rx="11.67" ry="11.78"/></svg>