<svg id="Lag_1" data-name="Lag 1" xmlns="http://www.w3.org/2000/svg" viewBox="0 0 204.19 204.19"><defs><style>.cls-1{fill:#04485d;}.cls-2{fill:#fff;}</style></defs><path class="cls-1" d="M143.86,102.61c27.12,33.09,39.61,64.63,28.33,75.91-13.67,13.68-57.08-7.56-97-47.43-5.87-5.88-11.35-11.83-16.35-17.76l9.58-1.21,18-2.27,23-2.89,25-3.15Z"/><path class="cls-1" d="M124.75,81.57c2.37,2.37,4.68,4.76,6.92,7.14l-8.42,1.06-1.55.2-17.6,2.22L68.15,96.72,56.83,98.15l-3.11.4-5.94.75a182.87,182.87,0,0,1-15.7-25.23c-.91-1.79-1.75-3.57-2.5-5.3h0c-6.95-15.68-8.07-28.32-1.76-34.62,10.91-10.91,40.76.41,72.63,25.69,2,1.57,4,3.2,6,4.88C112.53,69.86,118.68,75.49,124.75,81.57Z"/><path class="cls-2" d="M134.4,103.81c1.5,1.74,3,3.48,4.38,5.19,3.13,3.83,6.06,7.62,8.74,11.32,17.06,23.49,24.53,43.56,17.28,50.81s-27.32-.23-50.81-17.28c-3.7-2.68-7.49-5.61-11.31-8.74-5.48-4.5-11.08-9.45-16.65-14.78-1.69-1.62-3.39-3.27-5.08-5s-3.33-3.38-5-5.07q-3.91-4.1-7.54-8.18l18-2.27,23-2.89Z"/><path class="cls-2" d="M119,87.28c.9.9,1.78,1.8,2.66,2.69l-17.6,2.22L68.15,96.72,56.83,98.15c-1.51-2-3-3.9-4.36-5.82A166.18,166.18,0,0,1,40.22,73.05c-1-1.81-1.86-3.59-2.66-5.29C31.87,55.54,30.67,46,35.19,41.52c7.25-7.25,27.32.22,50.81,17.28,1.09.79,2.19,1.61,3.31,2.44,2,1.55,4.11,3.15,6.2,4.84h0l.31.26c6,4.81,12,10.17,18.14,16Q116.51,84.75,119,87.28Z"/><polygon class="cls-1" points="152.53 95.48 39.94 110.35 39.37 105.62 151.97 90.75 152.53 95.48"/><polygon class="cls-1" points="192.78 80.18 194.45 97.76 161.66 101.17 160.95 93.67 161.64 101.1 155.27 97.33 148.9 93.55 154.45 88.55 160 83.55 160 83.6 192.78 80.18"/><polygon class="cls-1" points="6.21 119.93 4.54 102.36 37.33 98.94 38.04 106.44 37.35 99.01 43.72 102.78 50.09 106.56 44.54 111.57 38.99 116.56 38.99 116.52 6.21 119.93"/><polygon class="cls-1" points="85.48 56.04 95.51 66.08 66.48 95.11 55.17 96.54 52.05 96.93 48.32 93.2 85.48 56.04"/><rect class="cls-1" x="26.95" y="45.31" width="39.21" height="14.18" transform="translate(-23.42 48.26) rotate(-45)"/><rect class="cls-1" x="24.92" y="37.77" width="27.37" height="14.18" transform="translate(-20.41 40.44) rotate(-45)"/><polygon class="cls-1" points="84.77 108.24 107.73 105.35 82.51 130.57 72.48 120.54 84.77 108.24"/><polygon class="cls-1" points="113.22 79.79 121.58 88.16 120.03 88.36 102.44 90.58 113.22 79.79"/><rect class="cls-1" x="96.09" y="123.3" width="56.1" height="14.18" transform="translate(-55.84 125.97) rotate(-45)"/><rect class="cls-1" x="132.35" y="150.7" width="39.21" height="14.18" transform="translate(370.98 161.93) rotate(135)"/><rect class="cls-1" x="146.38" y="158.17" width="27.37" height="14.66" transform="translate(390.28 169.35) rotate(135)"/></svg>