<svg id="Lag_1" data-name="Lag 1" xmlns="http://www.w3.org/2000/svg" viewBox="0 0 204.19 204.19"><defs><style>.cls-1{fill:#04485d;}.cls-2{fill:#fff;}</style></defs><rect class="cls-1" x="18.81" y="104.41" width="166.56" height="99.52"/><path class="cls-1" d="M110.6,100.63H27.32c-4.68,0-5.58-2.46-2-5.48L54,71l13-11L95.59,35.9a10.49,10.49,0,0,1,13,0l28.64,24.15,13,11,28.63,24.14c3.58,3,2.68,5.48-2,5.48Z"/><polygon class="cls-1" points="115.78 100.63 46.18 100.63 80.98 71.38 115.78 42.12 150.58 71.38 185.37 100.63 115.78 100.63"/><polygon class="cls-1" points="88.41 100.63 18.81 100.63 53.61 71.38 88.41 42.12 123.2 71.38 158 100.63 88.41 100.63"/><rect class="cls-2" x="49.07" y="122.56" width="13.73" height="64.43" rx="2.09"/><rect class="cls-2" x="141.39" y="122.56" width="13.73" height="64.43" rx="2.09"/><path class="cls-2" d="M109,139.5v64.43H95.23V139.5a6.87,6.87,0,0,1,13.73,0Z"/><circle class="cls-2" cx="102.1" cy="77.86" r="6.86"/><rect class="cls-1" x="98.87" y="1.6" width="6.45" height="40.52"/><rect class="cls-1" x="98.87" y="0.86" width="6.45" height="20.26" transform="translate(113.08 -91.11) rotate(90)"/></svg>