<svg id="Lag_1" data-name="Lag 1" xmlns="http://www.w3.org/2000/svg" viewBox="0 0 204.19 204.19"><defs><style>.cls-1{fill:#04485d;}.cls-2{fill:none;stroke:#04485d;stroke-miterlimit:10;stroke-width:4px;}</style></defs><path class="cls-1" d="M11.92,188.6q4.17-33.47,8.33-66.92,4.13-33.21,8.26-66.42,2.34-18.84,4.69-37.67l-5,5H176.31l-5-5q4.31,33.15,8.6,66.29l8.64,66.55q2.41,18.67,4.84,37.35c.34,2.58,2.06,5.13,5,5,2.42-.11,5.36-2.22,5-5q-4.29-33.15-8.6-66.3t-8.63-66.54q-2.43-18.67-4.85-37.35c-.35-2.69-2-5-5-5H28.2c-2.95,0-4.67,2.31-5,5Q19,51,14.87,84.5q-4.12,33.23-8.26,66.43Q4.27,169.76,1.92,188.6c-.32,2.6,2.54,5.11,5,5,3-.13,4.66-2.21,5-5Z"/><path class="cls-1" d="M89.39,162.39H41.1a6.84,6.84,0,0,1,0-13.68H89.39a6.84,6.84,0,1,1,0,13.68Z"/><path class="cls-2" d="M36.11,155.47,47.81,20.33"/><path class="cls-2" d="M94.43,155.82,82.73,20.68"/><path class="cls-1" d="M164.22,162.39H115.93a6.84,6.84,0,0,1,0-13.68h48.29a6.84,6.84,0,0,1,0,13.68Z"/><path class="cls-2" d="M110.94,155.47l11.7-135.14"/><path class="cls-2" d="M169.26,155.82,157.55,20.68"/></svg>