<svg id="Lag_1" data-name="Lag 1" xmlns="http://www.w3.org/2000/svg" viewBox="0 0 204.19 204.19"><defs><style>.cls-1{fill:#04485d;}.cls-2{fill:#fff;}</style></defs><circle class="cls-1" cx="102.09" cy="64.53" r="64.53"/><path class="cls-1" d="M99.22,93h57.51a1.59,1.59,0,0,1,1.54,2.51l-26.16,50.57-2.6,5-26.16,50.57c-.71,1.38-1.89,1.38-2.6,0L74.59,151.1l-2.6-5L45.83,95.49A1.58,1.58,0,0,1,47.36,93Z"/><path class="cls-2" d="M115.93,77.53H88.26V49.86h27.67ZM95.4,70.39h13.39V57H95.4Z"/><path class="cls-2" d="M95.4,57H80.67A14.74,14.74,0,1,1,95.4,42.27ZM80.65,34.66a7.6,7.6,0,0,0,0,15.2h7.59V42.27A7.62,7.62,0,0,0,80.65,34.66Z"/><path class="cls-2" d="M80.65,99.87a14.74,14.74,0,1,1,0-29.48H95.4V85.12A14.77,14.77,0,0,1,80.65,99.87Zm0-22.34a7.6,7.6,0,1,0,7.59,7.59V77.53Z"/><path class="cls-2" d="M123.53,99.87a14.76,14.76,0,0,1-14.74-14.75V70.39h14.73a14.74,14.74,0,0,1,0,29.48Zm-7.6-22.34v7.59a7.6,7.6,0,1,0,7.59-7.59Z"/><path class="cls-2" d="M123.52,57H108.79V42.27A14.74,14.74,0,1,1,123.52,57Zm-7.59-7.14h7.59a7.6,7.6,0,1,0-7.59-7.59Z"/></svg>