<svg id="Lag_1" data-name="Lag 1" xmlns="http://www.w3.org/2000/svg" viewBox="0 0 204.19 204.19"><defs><style>.cls-1{fill:#04485d;}.cls-2{fill:#fff;}</style></defs><path class="cls-1" d="M58.44,164H2.83a1.7,1.7,0,0,1-1.67-2.59l25.48-56.73L29,99.51,54.45,42.77c.63-1.42,1.68-1.42,2.32,0L82.25,99.51l2.32,5.17,25.48,56.73a1.7,1.7,0,0,1-1.67,2.59Z"/><path class="cls-1" d="M60.47,41.54,115.19,164h89L143.83,41.54Z"/><polygon class="cls-1" points="69.77 164 28.32 164 49.04 117.86 69.77 71.72 90.49 117.86 111.22 164 69.77 164"/><polygon class="cls-2" points="55.61 164 25.65 164 40.63 130.65 55.61 97.3 70.59 130.65 85.56 164 55.61 164"/></svg>