<svg id="Lag_1" data-name="Lag 1" xmlns="http://www.w3.org/2000/svg" viewBox="0 0 204.19 204.19"><defs><style>.cls-1{fill:#04485d;}</style></defs><circle class="cls-1" cx="52.2" cy="25.61" r="25.1"/><circle class="cls-1" cx="144.24" cy="25.61" r="25.1"/><path class="cls-1" d="M152.75,149.84H101.12c-4.68,0-6.76-3.4-4.62-7.56l18-35.13L122.32,92l18-35.13c2.14-4.16,5.63-4.16,7.77,0l18,35.13,7.77,15.12L192,142.28c2.13,4.16.06,7.56-4.62,7.56Z"/><path class="cls-1" d="M127.49,156.5H161a0,0,0,0,1,0,0v44.85a2.83,2.83,0,0,1-2.83,2.83H130.32a2.83,2.83,0,0,1-2.83-2.83V156.5A0,0,0,0,1,127.49,156.5Z"/><path class="cls-1" d="M20.07,57.35H84.33a4.25,4.25,0,0,1,4.25,4.25v74.17a0,0,0,0,1,0,0H15.8a0,0,0,0,1,0,0V61.61A4.26,4.26,0,0,1,20.07,57.35Z"/><path class="cls-1" d="M35.21,142.23h34a0,0,0,0,1,0,0v59.11a2.83,2.83,0,0,1-2.83,2.83H38a2.84,2.84,0,0,1-2.84-2.84v-59.1A0,0,0,0,1,35.21,142.23Z"/><polygon class="cls-1" points="152.73 149.84 109.58 149.84 131.16 107.96 152.73 66.08 174.3 107.96 195.87 149.84 152.73 149.84"/><polygon class="cls-1" points="135.76 149.84 92.62 149.84 114.19 107.96 135.76 66.08 157.33 107.96 178.9 149.84 135.76 149.84"/></svg>