<svg id="Lag_1" data-name="Lag 1" xmlns="http://www.w3.org/2000/svg" viewBox="0 0 204.19 204.19"><defs><style>.cls-1{fill:#04485d;}.cls-2{fill:#fff;}</style></defs><path class="cls-1" d="M196.24,81a23.32,23.32,0,0,1-.58-5.19,23.06,23.06,0,0,1,.2-3Z"/><path class="cls-1" d="M193.3,94.67l-42-58.95a20.38,20.38,0,0,0-37.56,2.84,20.06,20.06,0,0,0-.83,3.72l.33,7.15q.3,7.07.61,14.14H92.78l.67-14.14.33-7.15A20.06,20.06,0,0,0,93,38.56,20.38,20.38,0,0,0,55.4,35.72L14.05,93.79a43.94,43.94,0,1,0,76,21.92l.21.38.4-8.48h25.07c.14,3.4.29,6.81.43,10.21a45.12,45.12,0,0,0-.32,5.36A44,44,0,1,0,193.3,94.67ZM46.73,160.07a36.89,36.89,0,1,1,36.89-36.89A36.93,36.93,0,0,1,46.73,160.07Zm113.12,0a36.89,36.89,0,1,1,36.89-36.89A36.93,36.93,0,0,1,159.85,160.07Z"/><circle class="cls-2" cx="46.74" cy="123.58" r="38.62"/><circle class="cls-2" cx="159.85" cy="123.18" r="38.62"/></svg>