<svg id="Lag_1" data-name="Lag 1" xmlns="http://www.w3.org/2000/svg" viewBox="0 0 204.19 204.19"><defs><style>.cls-1{fill:#04485d;}</style></defs><ellipse class="cls-1" cx="163.51" cy="189.98" rx="15.4" ry="14.21"/><path class="cls-1" d="M166.35,183.53H152.63c-1.56,0-2.21-1.11-1.45-2.47l4.09-7.29,2.77-5,4.09-7.3c.77-1.35,2-1.35,2.78,0l4.09,7.3,2.77,5,4.09,7.29c.76,1.36.11,2.47-1.45,2.47Z"/><path class="cls-1" d="M12.14,42.81H32.68a0,0,0,0,1,0,0v86.76a0,0,0,0,1,0,0H12.14A1.15,1.15,0,0,1,11,128.43V44A1.15,1.15,0,0,1,12.14,42.81Z"/><path class="cls-1" d="M129.75,10.15v7.54a3.48,3.48,0,0,1-3.48,3.48H99.08V42.34H114a3.28,3.28,0,0,1,3.3,3.26V56.69H59.46V45.6a3.28,3.28,0,0,1,3.3-3.26H78.21V21.17H51.31a3.48,3.48,0,0,1-3.48-3.48V10.15a3.52,3.52,0,0,1,3.48-3.52h26.9V0H99.08V6.63h27.19A3.52,3.52,0,0,1,129.75,10.15Z"/><path class="cls-1" d="M132.27,132.15H193.2a0,0,0,0,1,0,0v21.41a1.42,1.42,0,0,1-1.42,1.42H133.7a1.43,1.43,0,0,1-1.43-1.43V132.15A0,0,0,0,1,132.27,132.15Z"/><path class="cls-1" d="M186.88,129.59h-49c0-3.3,0-6.56-.07-9.86a9.31,9.31,0,0,0-.94-3.84,12.33,12.33,0,0,0-4.32-4.5,21.08,21.08,0,0,0-4-2.17H36.16V59.67h92.4A65.05,65.05,0,0,1,174.3,84.42a64,64,0,0,1,10.7,21A61.83,61.83,0,0,1,186.88,129.59Z"/></svg>